<svg width="205" height="33" viewBox="0 0 205 33" fill="none" xmlns="http://www.w3.org/2000/svg">
<path fill-rule="evenodd" clip-rule="evenodd" d="M26.4446 6.54469V24.6117L8.23368 27.7458V9.58659L26.4446 6.54469ZM4.35901 0C1.93734 0 0 1.84358 0 4.14804V33H30.7068C33.1285 33 35.0658 31.1564 35.0658 28.852V0H4.35901Z" fill="#0033A1"/>
<path fill-rule="evenodd" clip-rule="evenodd" d="M44.5066 3.96045H49.2627V29.8725H44.5066V3.96045Z" fill="#00BB31"/>
<path fill-rule="evenodd" clip-rule="evenodd" d="M105.83 14.4417C106.336 15.4122 106.538 16.2857 106.538 17.0621C106.538 18.0325 106.235 19.003 105.628 19.6824C105.122 20.3617 104.413 20.847 103.604 21.2352C102.389 21.8174 100.872 22.1086 99.4548 22.1086H92.5737C92.6749 22.3027 92.6749 22.5938 92.776 22.7879C93.5856 24.826 95.4071 25.8935 97.431 26.2817C97.7346 26.2817 98.0381 26.3787 98.3417 26.3787C98.6453 26.3787 98.9489 26.3787 99.2525 26.3787C101.479 26.4758 103.199 25.6994 104.312 25.2142C104.413 26.0876 104.312 27.6404 104.211 28.2227C103.806 30.1637 100.264 30.2607 98.9489 30.2607C98.5441 30.2607 98.1393 30.2607 97.7345 30.1637C97.3298 30.1637 96.925 30.0666 96.5202 29.9696C91.0558 28.9991 88.1211 24.5348 88.3235 19.4883V19.3912C88.4247 15.2181 90.9546 11.4332 95.1035 10.1716H95.2047C98.6453 9.2011 101.681 10.0745 103.806 11.8214C104.211 12.2096 104.616 12.5008 104.919 12.8889C105.223 13.5683 105.526 13.9565 105.83 14.4417ZM102.086 15.9945C101.985 15.7034 101.883 15.5093 101.681 15.3152C101.58 15.1211 101.276 14.8299 101.074 14.6358C99.9608 13.5683 98.1393 12.8889 96.3178 13.4712H96.2166C95.9131 13.5683 95.6095 13.6653 95.3059 13.8594C95.0023 13.9565 94.7999 14.1506 94.4963 14.3447C93.4844 15.1211 92.7761 16.7709 92.4725 18.7119H99.556C101.175 18.8089 102.997 18.0325 102.086 15.9945Z" fill="#00BB31"/>
<path fill-rule="evenodd" clip-rule="evenodd" d="M63.531 9.39514H61.8107C59.4833 9.39514 57.3582 10.2686 55.8403 11.7244C54.3224 13.1801 53.4116 15.2181 53.4116 17.4502V29.8725H58.1678V17.5473C58.1678 16.5768 58.5725 15.7034 59.2809 15.024C59.9892 14.3447 60.9 13.9565 61.9119 13.9565H63.6322C64.6442 13.9565 65.6561 14.3447 66.2633 15.024C66.9716 15.7034 67.3764 16.5768 67.3764 17.5473V29.9696H72.0313V17.5473C72.0313 15.3152 71.1206 13.2771 69.6027 11.8214C67.9836 10.3657 65.8585 9.39514 63.531 9.39514Z" fill="#00BB31"/>
<path fill-rule="evenodd" clip-rule="evenodd" d="M83.0614 26.0876C81.6447 25.9906 80.734 25.5053 80.4304 24.0496C80.3292 23.7584 80.3292 23.1761 80.3292 22.885V13.2771H84.9841C86.7044 13.2771 87.6152 12.7919 87.8176 11.3362L88.0199 9.68633H80.3292V4.34863H75.6743V22.885V22.982C75.7755 24.826 75.8767 26.6699 77.2934 28.2227C78.1029 28.9991 79.6209 29.7755 80.734 29.9696C81.3411 30.0666 82.0495 30.1637 82.6567 30.1637C83.9722 30.1637 85.8949 30.0666 86.9068 29.6784C87.9187 29.2902 88.1211 27.1551 87.9187 25.5053C86.8056 25.9906 84.4782 26.2817 83.0614 26.0876Z" fill="#00BB31"/>
<path fill-rule="evenodd" clip-rule="evenodd" d="M117.872 9.39514C115.545 9.39514 113.42 10.2686 111.902 11.7244C110.384 13.1801 109.372 15.2181 109.372 17.4502V29.8725H114.027V17.5473C114.027 16.5768 114.432 15.7034 115.14 15.024C115.848 14.3447 116.759 13.9565 117.771 13.9565H119.188V9.49219L117.872 9.39514Z" fill="#00BB31"/>
<path fill-rule="evenodd" clip-rule="evenodd" d="M195.488 19.5853L203.988 10.3657H199.333L190.833 19.5853L200.345 29.8725H205L195.488 19.5853Z" fill="#00BB31"/>
<path fill-rule="evenodd" clip-rule="evenodd" d="M186.077 29.8725H190.833V19.5853V3.96045H186.077V29.8725Z" fill="#00BB31"/>
<path fill-rule="evenodd" clip-rule="evenodd" d="M159.564 13.2771C160.07 14.3447 160.171 15.6063 160.272 16.6739V22.6909C160.272 25.6024 159.26 28.3197 156.123 29.6784C155.111 30.0666 153.998 30.3578 152.683 30.3578C147.421 30.4548 143.373 27.9315 143.778 23.2732C144.081 19.8765 147.016 18.4207 150.558 18.2266C152.177 18.1296 155.111 18.4207 156.225 18.2266C156.326 17.1591 156.022 15.8975 155.719 15.1211C155.415 14.5388 154.909 13.7624 154.1 13.5683C152.986 13.1801 151.468 13.083 150.254 13.1801C148.635 13.2771 147.421 13.4712 145.599 14.5388V12.7919C145.599 12.3067 145.7 11.6273 146.004 11.1421C146.712 10.0745 149.242 9.68632 150.659 9.58928C152.986 9.39518 155.82 9.58928 157.742 11.045C158.451 11.6273 159.058 12.3067 159.564 13.2771ZM156.427 20.944C155.314 21.0411 154.302 21.0411 153.29 21.0411C151.468 21.0411 150.457 21.2352 149.445 21.6234C148.433 22.0115 147.927 22.885 147.826 23.6614V23.7584C147.724 25.4083 148.534 26.5728 150.052 26.7669C151.873 26.961 153.29 26.7669 154.403 26.2817C155.213 25.8935 155.82 25.0201 156.123 23.7584C156.427 23.0791 156.427 21.9145 156.427 20.944Z" fill="#00BB31"/>
<path fill-rule="evenodd" clip-rule="evenodd" d="M179.803 11.8213C178.285 10.3656 176.16 9.49219 173.832 9.49219H172.213C169.886 9.49219 167.761 10.3656 166.243 11.8213C164.725 13.277 163.814 15.3151 163.814 17.5472V29.9695H168.469V17.5472C168.469 16.5767 168.874 15.7033 169.582 15.0239C170.291 14.3446 171.201 13.9564 172.213 13.9564H173.832C174.844 13.9564 175.755 14.3446 176.463 15.0239C177.172 15.7033 177.576 16.5767 177.576 17.5472V29.9695H182.333V17.5472C182.231 15.3151 181.321 13.277 179.803 11.8213Z" fill="#00BB31"/>
<path fill-rule="evenodd" clip-rule="evenodd" d="M126.372 4.25159L126.271 12.6949C128.801 10.2686 131.634 9.58928 135.176 10.5598C139.235 11.5092 141.551 14.9662 141.65 19.7497L141.653 20.0706C141.754 26.3787 137.2 30.2607 131.736 30.3578C125.765 30.4548 121.717 26.3787 121.717 20.6529V4.25159H126.372ZM131.736 13.4712C130.015 13.4712 128.497 14.3447 127.486 15.8004C126.575 17.0621 126.474 18.6148 126.474 20.5558C126.474 22.1086 126.777 23.5643 127.789 24.826C128.801 26.0876 130.218 26.6699 131.837 26.6699C134.771 26.5728 137.2 23.9525 137.2 19.9735C137.2 15.9945 134.771 13.4712 131.736 13.4712Z" fill="#00BB31"/>
</svg>
