<?xml version="1.0" encoding="UTF-8"?>
<svg width="58px" height="55px" viewBox="0 0 58 55" version="1.1" xmlns="http://www.w3.org/2000/svg" xmlns:xlink="http://www.w3.org/1999/xlink">
    <!-- Generator: sketchtool 58 (101010) - https://sketch.com -->
    <title>73D276E1-1479-4611-8E84-68438B7F8D11</title>
    <desc>Created with sketchtool.</desc>
    <g id="GESTION-DE-CASOS-CREAR-CASOS-" stroke="none" stroke-width="1" fill="none" fill-rule="evenodd">
        <g id="013_CREAR-CASO_DESDE-CONSULTA-SUSCRIPCION" transform="translate(-648.000000, -440.000000)" fill-rule="nonzero">
            <g id="excel" transform="translate(648.000000, 440.000000)">
                <path d="M56.1875,47.2395273 L30.8125,47.2395273 C29.812,47.2395273 29,46.4275273 29,45.4270273 C29,44.4265273 29,10.1775273 29,9.17702734 C29,8.17652734 29.812,7.36452734 30.8125,7.36452734 L56.1875,7.36452734 C57.188,7.36452734 58,8.17652734 58,9.17702734 L58,45.4270273 C58,46.4275273 57.188,47.2395273 56.1875,47.2395273 Z" id="Path" fill="#F1F5F7"></path>
                <g id="Group" transform="translate(29.000000, 14.613281)" fill="#46B34C">
                    <path d="M9.0625,3.62624609 L1.8125,3.62624609 C0.812,3.62624609 0,2.81424609 0,1.81374609 C0,0.813246094 0.812,0.00124609375 1.8125,0.00124609375 L9.0625,0.00124609375 C10.063,0.00124609375 10.875,0.813246094 10.875,1.81374609 C10.875,2.81424609 10.063,3.62624609 9.0625,3.62624609 Z" id="Path"></path>
                    <path d="M9.0625,10.8762461 L1.8125,10.8762461 C0.812,10.8762461 0,10.0642461 0,9.06374609 C0,8.06324609 0.812,7.25124609 1.8125,7.25124609 L9.0625,7.25124609 C10.063,7.25124609 10.875,8.06324609 10.875,9.06374609 C10.875,10.0642461 10.063,10.8762461 9.0625,10.8762461 Z" id="Path"></path>
                    <path d="M9.0625,18.1262461 L1.8125,18.1262461 C0.812,18.1262461 0,17.3142461 0,16.3137461 C0,15.3132461 0.812,14.5012461 1.8125,14.5012461 L9.0625,14.5012461 C10.063,14.5012461 10.875,15.3132461 10.875,16.3137461 C10.875,17.3142461 10.063,18.1262461 9.0625,18.1262461 Z" id="Path"></path>
                    <path d="M9.0625,25.3762461 L1.8125,25.3762461 C0.812,25.3762461 0,24.5642461 0,23.5637461 C0,22.5632461 0.812,21.7512461 1.8125,21.7512461 L9.0625,21.7512461 C10.063,21.7512461 10.875,22.5632461 10.875,23.5637461 C10.875,24.5642461 10.063,25.3762461 9.0625,25.3762461 Z" id="Path"></path>
                    <path d="M19.9375,3.62624609 L16.3125,3.62624609 C15.312,3.62624609 14.5,2.81424609 14.5,1.81374609 C14.5,0.813246094 15.312,0.00124609375 16.3125,0.00124609375 L19.9375,0.00124609375 C20.938,0.00124609375 21.75,0.813246094 21.75,1.81374609 C21.75,2.81424609 20.938,3.62624609 19.9375,3.62624609 Z" id="Path"></path>
                    <path d="M19.9375,10.8762461 L16.3125,10.8762461 C15.312,10.8762461 14.5,10.0642461 14.5,9.06374609 C14.5,8.06324609 15.312,7.25124609 16.3125,7.25124609 L19.9375,7.25124609 C20.938,7.25124609 21.75,8.06324609 21.75,9.06374609 C21.75,10.0642461 20.938,10.8762461 19.9375,10.8762461 Z" id="Path"></path>
                    <path d="M19.9375,18.1262461 L16.3125,18.1262461 C15.312,18.1262461 14.5,17.3142461 14.5,16.3137461 C14.5,15.3132461 15.312,14.5012461 16.3125,14.5012461 L19.9375,14.5012461 C20.938,14.5012461 21.75,15.3132461 21.75,16.3137461 C21.75,17.3142461 20.938,18.1262461 19.9375,18.1262461 Z" id="Path"></path>
                    <path d="M19.9375,25.3762461 L16.3125,25.3762461 C15.312,25.3762461 14.5,24.5642461 14.5,23.5637461 C14.5,22.5632461 15.312,21.7512461 16.3125,21.7512461 L19.9375,21.7512461 C20.938,21.7512461 21.75,22.5632461 21.75,23.5637461 C21.75,24.5642461 20.938,25.3762461 19.9375,25.3762461 Z" id="Path"></path>
                </g>
                <path d="M31.968875,0.531402344 C31.555625,0.187027344 31.001,0.0384023438 30.479,0.147152344 L1.479,5.58465234 C0.619875,5.74415234 0,6.49090234 0,7.36452734 L0,47.2395273 C0,48.1095273 0.619875,48.8599023 1.479,49.0194023 L30.479,54.4569023 C30.58775,54.4786523 30.700125,54.4895273 30.8125,54.4895273 C31.233,54.4895273 31.642625,54.3445273 31.968875,54.0726523 C32.38575,53.7282773 32.625,53.2135273 32.625,52.6770273 L32.625,1.92702734 C32.625,1.38690234 32.38575,0.875777344 31.968875,0.531402344 Z" id="Path" fill="#3CA241"></path>
                <path d="M24.9255,33.3594023 L19.194375,26.8090273 L24.99075,19.3560273 C25.607,18.5657773 25.462,17.4275273 24.675375,16.8112773 C23.88875,16.1950273 22.7505,16.3400273 22.130625,17.1266523 L16.762,24.0286523 L12.238,18.8594023 C11.574625,18.0981523 10.429125,18.0292773 9.682375,18.6890273 C8.928375,19.3487773 8.85225,20.4942773 9.512,21.2446523 L14.496375,26.9431523 L9.443125,33.4391523 C8.826875,34.2294023 8.971875,35.3676523 9.7585,35.9839023 C10.092,36.2412773 10.487125,36.3645273 10.875,36.3645273 C11.415125,36.3645273 11.948,36.1252773 12.306875,35.6649023 L16.92875,29.7199023 L22.1995,35.7410273 C22.558375,36.1542773 23.058625,36.3645273 23.5625,36.3645273 C23.986625,36.3645273 24.41075,36.2159023 24.755125,35.9150273 C25.509125,35.2552773 25.58525,34.1097773 24.9255,33.3594023 Z" id="Path" fill="#FAFAFA"></path>
            </g>
        </g>
    </g>
</svg>